<svg xmlns="http://www.w3.org/2000/svg" width="960" height="434" viewBox="0 0 960 434">
<rect width="100%" height="100%" fill="#ffffff"/>
<text x="24" y="34" font-family="Arial, sans-serif" font-size="22" font-weight="700" fill="#111111">Source-family concentration, top 10</text>
<text x="24" y="78" font-family="Arial, sans-serif" font-size="14" fill="#222222">AYR_FAMILY</text>
<rect x="260" y="58" width="620" height="22" fill="#2f6f73"/>
<text x="888" y="75" font-family="Arial, sans-serif" font-size="13" fill="#222222">1272</text>
<text x="24" y="112" font-family="Arial, sans-serif" font-size="14" fill="#222222">Australian Broadcasting Corporation</text>
<rect x="260" y="92" width="56" height="22" fill="#2f6f73"/>
<text x="324" y="109" font-family="Arial, sans-serif" font-size="13" fill="#222222">116</text>
<text x="24" y="146" font-family="Arial, sans-serif" font-size="14" fill="#222222">INTERNET_ARCHIVE_FAMILY</text>
<rect x="260" y="126" width="36" height="22" fill="#2f6f73"/>
<text x="304" y="143" font-family="Arial, sans-serif" font-size="13" fill="#222222">74</text>
<text x="24" y="180" font-family="Arial, sans-serif" font-size="14" fill="#222222">GUTENBERG_FAMILY</text>
<rect x="260" y="160" width="33" height="22" fill="#2f6f73"/>
<text x="301" y="177" font-family="Arial, sans-serif" font-size="13" fill="#222222">68</text>
<text x="24" y="214" font-family="Arial, sans-serif" font-size="14" fill="#222222">State Library Victoria</text>
<rect x="260" y="194" width="10" height="22" fill="#2f6f73"/>
<text x="278" y="211" font-family="Arial, sans-serif" font-size="13" fill="#222222">21</text>
<text x="24" y="248" font-family="Arial, sans-serif" font-size="14" fill="#222222">National Trust and ABC public pages</text>
<rect x="260" y="228" width="3" height="22" fill="#2f6f73"/>
<text x="271" y="245" font-family="Arial, sans-serif" font-size="13" fill="#222222">8</text>
<text x="24" y="282" font-family="Arial, sans-serif" font-size="14" fill="#222222">National Trust of Australia (NSW)</text>
<rect x="260" y="262" width="2" height="22" fill="#2f6f73"/>
<text x="270" y="279" font-family="Arial, sans-serif" font-size="13" fill="#222222">6</text>
<text x="24" y="316" font-family="Arial, sans-serif" font-size="14" fill="#222222">Adelaide Arcade</text>
<rect x="260" y="296" width="2" height="22" fill="#2f6f73"/>
<text x="270" y="313" font-family="Arial, sans-serif" font-size="13" fill="#222222">5</text>
<text x="24" y="350" font-family="Arial, sans-serif" font-size="14" fill="#222222">Territory Stories</text>
<rect x="260" y="330" width="2" height="22" fill="#2f6f73"/>
<text x="270" y="347" font-family="Arial, sans-serif" font-size="13" fill="#222222">5</text>
<text x="24" y="384" font-family="Arial, sans-serif" font-size="14" fill="#222222">Adelaide Gaol</text>
<rect x="260" y="364" width="1" height="22" fill="#2f6f73"/>
<text x="269" y="381" font-family="Arial, sans-serif" font-size="13" fill="#222222">4</text>
</svg>
